<svg width="100" height="100" viewBox="0 0 100 100" fill="none" xmlns="http://www.w3.org/2000/svg">
  <!-- Hisab App Icon - Deep Charcoal Squircle (#111111) -->
  <rect width="100" height="100" rx="24" fill="#111111" />
  
  <!-- 'h' Letterform (Electric Lime #9EFF33) -->
  <path
    d="M 20 18 C 20 16.9 20.9 16 22 16 L 34 16 C 35.1 16 36 16.9 36 18 L 36 38 C 42 29 50 27 60 27 C 70 27 78 33.5 78 44 L 78 82 C 78 83.1 77.1 84 76 84 L 64 84 C 62.9 84 62 83.1 62 82 L 62 47 C 62 41 58.5 38.5 53 38.5 C 46.5 38.5 42 42.5 41 49 L 41 60 C 41 61.1 40.1 62 39 62 L 22 62 C 20.9 62 20 61.1 20 60 Z"
    fill="#9EFF33"
  />

  <!-- Growth Bar 1 (bottom-left) -->
  <rect x="20" y="68" width="16" height="16" rx="2" fill="#9EFF33" />

  <!-- Growth Bar 2 (center 50%) -->
  <rect x="41" y="48" width="16" height="36" rx="2" fill="#9EFF33" />
</svg>
